<svg width="37" height="37" viewBox="0 0 37 37" fill="none" xmlns="http://www.w3.org/2000/svg">
<path fill-rule="evenodd" clip-rule="evenodd" d="M18.5 2.31251C14.657 2.31302 10.9394 3.68079 8.01246 6.17114C5.08549 8.66148 3.13999 12.1119 2.52399 15.9053C1.90798 19.6987 2.66166 23.5874 4.6502 26.876C6.63873 30.1646 9.73241 32.6384 13.3778 33.855C14.1872 34.0053 14.5341 33.5081 14.5341 33.0803V30.3284C10.0363 31.2997 9.08813 28.1547 9.08813 28.1547C8.77184 27.1636 8.10615 26.3212 7.215 25.7844C5.74656 24.79 7.33063 24.8016 7.33063 24.8016C7.84354 24.874 8.33312 25.0627 8.76196 25.3533C9.1908 25.6439 9.54756 26.0286 9.805 26.4781C10.2529 27.2814 11.0014 27.874 11.8861 28.1255C12.7707 28.377 13.719 28.2669 14.5225 27.8194C14.5878 26.999 14.9495 26.2304 15.54 25.6572C11.9556 25.2409 8.17469 23.8534 8.17469 17.6559C8.14847 16.0463 8.74498 14.4888 9.83969 13.3084C9.34419 11.9142 9.40212 10.3831 10.0016 9.03032C10.0016 9.03032 11.3544 8.59094 14.4531 10.6838C17.1026 9.96104 19.8974 9.96104 22.5469 10.6838C25.6341 8.59094 26.9869 9.03032 26.9869 9.03032C27.5863 10.3831 27.6442 11.9142 27.1487 13.3084C28.2435 14.4888 28.84 16.0463 28.8138 17.6559C28.8138 23.8766 25.0328 25.2409 21.4253 25.6456C21.8118 26.0373 22.1098 26.5073 22.2992 27.0239C22.4887 27.5405 22.5653 28.0917 22.5237 28.6403V33.0803C22.5237 33.6122 22.8128 34.0169 23.68 33.855C27.3302 32.6369 30.4271 30.1583 32.4153 26.8637C34.4035 23.5691 35.153 19.6739 34.5295 15.8767C33.9059 12.0795 31.95 8.62861 29.0125 6.14289C26.075 3.65718 22.348 2.29921 18.5 2.31251V2.31251Z" fill="white"/>
</svg>
